<svg width="31" height="31" viewBox="0 0 31 31" fill="none" xmlns="http://www.w3.org/2000/svg">
<path fill-rule="evenodd" clip-rule="evenodd" d="M22.9905 4.49748C22.581 3.79322 21.8243 3.35937 21.0053 3.35938L9.32508 3.35939C8.5061 3.35939 7.74933 3.79324 7.33985 4.4975L1.49974 14.5416C1.09026 15.2459 1.09025 16.1136 1.49974 16.8178L7.33985 26.8619C7.74933 27.5662 8.5061 28 9.32508 28L21.0053 28C21.8243 28 22.581 27.5662 22.9905 26.8619L28.8306 16.8178C29.2401 16.1136 29.2401 15.2459 28.8306 14.5416L22.9905 4.49748ZM27.0846 14.5416C27.2724 14.5416 27.3898 14.3398 27.2959 14.1783L21.9979 5.06653C21.7932 4.7144 21.4148 4.49748 21.0053 4.49748L10.4093 4.49748C10.2215 4.49748 10.1042 4.69929 10.1981 4.86074L10.8749 6.02485C12.1988 8.30167 12.1988 11.1068 10.8749 13.3836L13.2386 9.31853C14.5837 7.00506 17.5629 6.21241 19.8928 7.54809C22.2227 8.88377 23.0209 11.842 21.6758 14.1555L19.3122 18.2206C20.6358 15.944 23.0821 14.5416 25.7295 14.5416H27.0846ZM11.0702 14.1859C12.385 17.0243 15.3816 18.7424 18.5145 18.4543L16.5646 21.8078C15.3777 23.8491 12.749 24.5485 10.6932 23.37C8.63746 22.1914 7.93309 19.5812 9.12 17.5399L11.0702 14.1859Z" fill="#F6FFFD"/>
</svg>
